<svg version="1.2" xmlns="http://www.w3.org/2000/svg" viewBox="0 0 512 512" width="180" height="180">
	<defs>
		<linearGradient id="g1" x2="1" gradientUnits="userSpaceOnUse" gradientTransform="matrix(512,512,-512,512,0,0)">
			<stop offset="0" stop-color="#e21b3a"/>
			<stop offset=".01" stop-color="#e21b3a"/>
			<stop offset="1" stop-color="#0463ec"/>
		</linearGradient>
	</defs>
	<style>
		.s0 { fill: url(#g1) } 
		.s1 { fill: #ffffff } 
	</style>
	<path fill-rule="evenodd" class="s0" d="m115 0h282c63.51 0 115 51.49 115 115v282c0 63.51-51.49 115-115 115h-282c-63.51 0-115-51.49-115-115v-282c0-63.51 51.49-115 115-115z"/>
	<g>
		<path class="s1" d="m283.93 34c1.09 7.08-36.91 17.52-43.99 55.19-2.6 13.78 6.32 49.57-14.92 62.26-3.69 1.85-19.36 3.69-27.57-9.72-5.2 10.81-7.84 23.09-7.84 35.79 0 34.65 20.53 64.48 50.33 77.89v-42.11c0-22 17.89-39.51 39.51-39.51h1.09c22 0 39.51 17.93 39.51 39.51l-9.55 42.78c40.81-11.94 59.88-46.13 59.88-78.56 0.38-57.03-58.16-64.49-86.45-143.52z"/>
		<path class="s1" d="m241.95 398.85l69.14-169.46c6.91-16.88-1.26-36.33-18.19-43.24l-1.01-0.42c-16.92-6.91-36.37 1.26-43.28 18.19l-69.27 169.78c-15.54 4.53-28.2 15.89-34.4 31.05-11.14 27.28 2.14 58.88 29.42 69.98 27.23 11.15 58.83-2.13 69.98-29.41 6.7-15.38 5.57-32.35-2.39-46.47zm-59.63 57.4c-17.26-7.04-25.65-26.94-18.61-44.2 4.36-10.69 13.83-18.11 25.19-20.33l5.28-1.04 13.11-32.1 12.07 4.9 3.4-8.3-12.11-4.9 4.94-12.07 12.07 4.91 3.39-8.3-12.07-4.95 4.91-12.06 12.11 4.94 3.22-7.92-12.07-4.94 4.91-12.07 12.07 4.9 3.39-8.29-12.07-4.91 4.95-12.07 12.06 4.91 3.36-8.3-12.07-4.9 4.94-12.07 12.07 4.9 3.39-8.25-12.06-4.95 4.9-12.06 12.07 4.94 3.39-8.3-12.07-4.94 7.04-17.27c2.81-6.87 10.6-10.18 17.52-7.33l1 0.42c6.92 2.81 10.19 10.6 7.38 17.47l-73.25 179.47 3.02 4.44c6.62 9.56 8.17 21.46 3.81 32.14-7.41 17.14-27.32 25.52-44.58 18.48z"/>
	</g>
</svg>